<svg id="visual" viewBox="0 0 900 600" width="900" height="600" xmlns="http://www.w3.org/2000/svg" xmlns:xlink="http://www.w3.org/1999/xlink" version="1.1"><path d="M0 223L21.5 220.5C43 218 86 213 128.8 204.3C171.7 195.7 214.3 183.3 257.2 182.3C300 181.3 343 191.7 385.8 196C428.7 200.3 471.3 198.7 514.2 202.3C557 206 600 215 642.8 216.5C685.7 218 728.3 212 771.2 213.3C814 214.7 857 223.3 878.5 227.7L900 232L900 0L878.5 0C857 0 814 0 771.2 0C728.3 0 685.7 0 642.8 0C600 0 557 0 514.2 0C471.3 0 428.7 0 385.8 0C343 0 300 0 257.2 0C214.3 0 171.7 0 128.8 0C86 0 43 0 21.5 0L0 0Z" fill="#fa7268"></path><path d="M0 168L21.5 167.5C43 167 86 166 128.8 168.3C171.7 170.7 214.3 176.3 257.2 173.8C300 171.3 343 160.7 385.8 164C428.7 167.3 471.3 184.7 514.2 182C557 179.3 600 156.7 642.8 146.7C685.7 136.7 728.3 139.3 771.2 139C814 138.7 857 135.3 878.5 133.7L900 132L900 0L878.5 0C857 0 814 0 771.2 0C728.3 0 685.7 0 642.8 0C600 0 557 0 514.2 0C471.3 0 428.7 0 385.8 0C343 0 300 0 257.2 0C214.3 0 171.7 0 128.8 0C86 0 43 0 21.5 0L0 0Z" fill="#ef5f67"></path><path d="M0 148L21.5 149.5C43 151 86 154 128.8 148.8C171.7 143.7 214.3 130.3 257.2 119.2C300 108 343 99 385.8 105.5C428.7 112 471.3 134 514.2 136.2C557 138.3 600 120.7 642.8 116.2C685.7 111.7 728.3 120.3 771.2 124.3C814 128.3 857 127.7 878.5 127.3L900 127L900 0L878.5 0C857 0 814 0 771.2 0C728.3 0 685.7 0 642.8 0C600 0 557 0 514.2 0C471.3 0 428.7 0 385.8 0C343 0 300 0 257.2 0C214.3 0 171.7 0 128.8 0C86 0 43 0 21.5 0L0 0Z" fill="#e34c67"></path><path d="M0 73L21.5 76C43 79 86 85 128.8 90.8C171.7 96.7 214.3 102.3 257.2 97.5C300 92.7 343 77.3 385.8 71C428.7 64.7 471.3 67.3 514.2 70.2C557 73 600 76 642.8 78.8C685.7 81.7 728.3 84.3 771.2 90.2C814 96 857 105 878.5 109.5L900 114L900 0L878.5 0C857 0 814 0 771.2 0C728.3 0 685.7 0 642.8 0C600 0 557 0 514.2 0C471.3 0 428.7 0 385.8 0C343 0 300 0 257.2 0C214.3 0 171.7 0 128.8 0C86 0 43 0 21.5 0L0 0Z" fill="#d53867"></path><path d="M0 31L21.5 30C43 29 86 27 128.8 29.2C171.7 31.3 214.3 37.7 257.2 42.3C300 47 343 50 385.8 54.7C428.7 59.3 471.3 65.7 514.2 67.3C557 69 600 66 642.8 65.7C685.7 65.3 728.3 67.7 771.2 61.5C814 55.3 857 40.7 878.5 33.3L900 26L900 0L878.5 0C857 0 814 0 771.2 0C728.3 0 685.7 0 642.8 0C600 0 557 0 514.2 0C471.3 0 428.7 0 385.8 0C343 0 300 0 257.2 0C214.3 0 171.7 0 128.8 0C86 0 43 0 21.5 0L0 0Z" fill="#c62368"></path></svg>