<svg id="visual" viewBox="0 0 900 600" width="900" height="600" xmlns="http://www.w3.org/2000/svg" xmlns:xlink="http://www.w3.org/1999/xlink" version="1.1"><path d="M0 375L21.5 377.5C43 380 86 385 128.8 393.7C171.7 402.3 214.3 414.7 257.2 415.7C300 416.7 343 406.3 385.8 402C428.7 397.7 471.3 399.3 514.2 395.7C557 392 600 383 642.8 381.5C685.7 380 728.3 386 771.2 384.7C814 383.3 857 374.7 878.5 370.3L900 366L900 601L878.5 601C857 601 814 601 771.2 601C728.3 601 685.7 601 642.8 601C600 601 557 601 514.2 601C471.3 601 428.7 601 385.8 601C343 601 300 601 257.2 601C214.3 601 171.7 601 128.8 601C86 601 43 601 21.5 601L0 601Z" fill="#fa7268"></path><path d="M0 430L21.5 430.5C43 431 86 432 128.8 429.7C171.7 427.3 214.3 421.7 257.2 424.2C300 426.7 343 437.3 385.8 434C428.7 430.7 471.3 413.3 514.2 416C557 418.7 600 441.3 642.8 451.3C685.7 461.3 728.3 458.7 771.2 459C814 459.3 857 462.7 878.5 464.3L900 466L900 601L878.5 601C857 601 814 601 771.2 601C728.3 601 685.7 601 642.8 601C600 601 557 601 514.2 601C471.3 601 428.7 601 385.8 601C343 601 300 601 257.2 601C214.3 601 171.7 601 128.8 601C86 601 43 601 21.5 601L0 601Z" fill="#ef5f67"></path><path d="M0 450L21.5 448.5C43 447 86 444 128.8 449.2C171.7 454.3 214.3 467.7 257.2 478.8C300 490 343 499 385.8 492.5C428.7 486 471.3 464 514.2 461.8C557 459.7 600 477.3 642.8 481.8C685.7 486.3 728.3 477.7 771.2 473.7C814 469.7 857 470.3 878.5 470.7L900 471L900 601L878.5 601C857 601 814 601 771.2 601C728.3 601 685.7 601 642.8 601C600 601 557 601 514.2 601C471.3 601 428.7 601 385.8 601C343 601 300 601 257.2 601C214.3 601 171.7 601 128.8 601C86 601 43 601 21.5 601L0 601Z" fill="#e34c67"></path><path d="M0 525L21.5 522C43 519 86 513 128.8 507.2C171.7 501.3 214.3 495.7 257.2 500.5C300 505.3 343 520.7 385.8 527C428.7 533.3 471.3 530.7 514.2 527.8C557 525 600 522 642.8 519.2C685.7 516.3 728.3 513.7 771.2 507.8C814 502 857 493 878.5 488.5L900 484L900 601L878.5 601C857 601 814 601 771.2 601C728.3 601 685.7 601 642.8 601C600 601 557 601 514.2 601C471.3 601 428.7 601 385.8 601C343 601 300 601 257.2 601C214.3 601 171.7 601 128.8 601C86 601 43 601 21.5 601L0 601Z" fill="#d53867"></path><path d="M0 567L21.5 568C43 569 86 571 128.8 568.8C171.7 566.7 214.3 560.3 257.2 555.7C300 551 343 548 385.8 543.3C428.7 538.7 471.3 532.3 514.2 530.7C557 529 600 532 642.8 532.3C685.7 532.7 728.3 530.3 771.2 536.5C814 542.7 857 557.3 878.5 564.7L900 572L900 601L878.5 601C857 601 814 601 771.2 601C728.3 601 685.7 601 642.8 601C600 601 557 601 514.2 601C471.3 601 428.7 601 385.8 601C343 601 300 601 257.2 601C214.3 601 171.7 601 128.8 601C86 601 43 601 21.5 601L0 601Z" fill="#c62368"></path></svg>